<svg xmlns="http://www.w3.org/2000/svg" x="0px" y="0px"
     width="24" height="24"
     viewBox="0 0 50 50"
     style="fill:#ffffff;">    <path d="M 25 1 C 18.604 1 12.663484 3.5628437 8.2714844 8.2148438 C 7.9774844 8.5268437 7.9141875 8.9920938 8.1171875 9.3710938 L 8.796875 10.640625 C 5.874875 14.181625 4.1985781 18.578016 4.0175781 23.166016 C 2.8445781 23.573016 2 24.69 2 26 L 2 30 C 2 31.654 3.346 33 5 33 L 9 33 C 9.553 33 10 32.553 10 32 L 10 24 C 10 19.859 11.649484 16.005484 14.646484 13.146484 C 17.641484 10.289484 21.568563 8.8165781 25.726562 9.0175781 C 33.730562 9.3945781 40 16.173172 40 24.451172 L 40 32 C 40 32.553 40.447 33 41 33 L 45 33 C 46.654 33 48 31.654 48 30 L 48 26 C 48 24.69 47.155422 23.573016 45.982422 23.166016 C 45.800422 18.588016 44.130703 14.198109 41.220703 10.662109 L 41.890625 9.3554688 C 42.082625 8.9794688 42.016562 8.5208906 41.726562 8.2128906 C 37.335563 3.5618906 31.396 1 25 1 z M 15.875 27 C 13.889 27 13 28.781875 13 30.546875 C 13 32.276875 13.464906 33.616297 14.378906 34.529297 C 15.788906 35.936297 17.927312 36.001953 19.570312 36.001953 C 19.655313 36.001953 19.738312 36.001 19.820312 36 L 20.0625 36 C 21.1405 36 24 36.000516 24 33.728516 C 24 32.577516 22.871484 31.034484 20.646484 29.146484 C 20.053484 28.642484 17.954 27 15.875 27 z M 34.332031 29 C 32.498031 29 30.631516 30.177109 30.103516 30.537109 C 27.320516 32.434109 27 33.474797 27 34.091797 C 27 36.000797 29.439328 36.001953 30.611328 36.001953 L 30.826172 36.001953 L 31.0625 36.001953 C 32.7085 36.001953 34.679453 35.946453 35.939453 34.689453 C 36.642453 33.988453 37 33.021359 37 31.818359 C 37 30.460359 36.164031 29 34.332031 29 z M 40.228516 35.001953 C 39.838516 35.015953 39.49475 35.254281 39.34375 35.613281 C 39.32175 35.669281 36.982906 41.165906 32.378906 43.878906 C 27.746906 46.607906 23.044094 46.652344 22.996094 46.652344 C 22.477094 46.654344 22.047906 47.051359 22.003906 47.568359 C 21.960906 48.085359 22.316125 48.548719 22.828125 48.636719 C 23.018125 48.669719 25.033266 49.005859 27.697266 49.005859 C 31.351266 49.005859 36.227641 48.373844 39.306641 45.464844 C 42.988641 41.986844 42.12525 37.456875 41.15625 35.546875 C 40.98125 35.200875 40.650516 34.965953 40.228516 35.001953 z"></path></svg>
